<svg width="1200" height="630" viewBox="0 0 1200 630" fill="none" xmlns="http://www.w3.org/2000/svg">
  <rect width="1200" height="630" fill="#010101"/>

  <!-- Grid pattern -->
  <defs>
    <pattern id="grid" width="40" height="40" patternUnits="userSpaceOnUse">
      <path d="M 40 0 L 0 0 0 40" fill="none" stroke="#1a1a1a" stroke-width="1"/>
    </pattern>
  </defs>
  <rect width="1200" height="630" fill="url(#grid)"/>

  <!-- Robotico Logo Icon -->
  <g transform="translate(100, 200) scale(2.5)">
    <path d="M18.7 0H11.9055V6.68028L17.8549 12.6297L11.9055 18.5792V25.2594L30.3705 33.6755L34.47 22.7472C38.5923 11.739 30.4504 0 18.7 0Z" fill="#1ED612"/>
    <path d="M5.95102 6.67807L0 12.6291L5.95102 18.5801L11.902 12.6291L5.95102 6.67807Z" fill="#1ED612"/>
  </g>

  <!-- Title -->
  <text x="100" y="360" font-family="system-ui, -apple-system, sans-serif" font-size="56" font-weight="700" fill="#FFFFFF">Chronicling the Age</text>
  <text x="100" y="430" font-family="system-ui, -apple-system, sans-serif" font-size="56" font-weight="700" fill="#1ED612">of Embodied AI</text>

  <!-- Subtitle -->
  <text x="100" y="500" font-family="system-ui, -apple-system, sans-serif" font-size="24" fill="#71717a">Track valuations of Tesla, Figure AI, Boston Dynamics, and 20+ companies</text>

  <!-- Stats -->
  <g transform="translate(100, 550)">
    <text font-family="system-ui, -apple-system, sans-serif" font-size="20" fill="#1ED612">20+ Companies</text>
    <text x="200" font-family="system-ui, -apple-system, sans-serif" font-size="20" fill="#71717a">|</text>
    <text x="230" font-family="system-ui, -apple-system, sans-serif" font-size="20" fill="#1ED612">Real-time Data</text>
    <text x="430" font-family="system-ui, -apple-system, sans-serif" font-size="20" fill="#71717a">|</text>
    <text x="460" font-family="system-ui, -apple-system, sans-serif" font-size="20" fill="#1ED612">7 Countries</text>
  </g>

  <!-- Robot silhouette -->
  <g transform="translate(900, 180)">
    <rect x="40" y="0" width="120" height="100" rx="20" fill="#1ED612" opacity="0.2"/>
    <circle cx="100" cy="140" r="60" fill="#1ED612" opacity="0.1"/>
    <rect x="60" y="200" width="80" height="120" rx="10" fill="#1ED612" opacity="0.15"/>
    <circle cx="80" cy="40" r="15" fill="#1ED612"/>
    <circle cx="120" cy="40" r="15" fill="#1ED612"/>
    <rect x="70" y="65" width="60" height="8" rx="4" fill="#1ED612" opacity="0.5"/>
  </g>

  <!-- URL -->
  <text x="100" y="600" font-family="system-ui, -apple-system, sans-serif" font-size="16" fill="#52525b">robotico-portal.netlify.app</text>
</svg>
