<svg width="187" height="34" viewBox="0 0 187 34" fill="none" xmlns="http://www.w3.org/2000/svg">
<path d="M57.9953 6.68027C61.421 6.68027 64.2302 9.46657 64.2302 12.8924V15.416C64.2302 18.8646 61.501 21.5482 57.9838 21.5482L65.5091 31.9397H60.9414L53.4161 21.5482H50.527V17.8141H58.0067C59.3884 17.8141 60.5075 16.7178 60.5075 15.3589V12.8924C60.5075 11.522 59.3884 10.403 58.0067 10.403H48.4031V31.9283H44.6575V6.68027H58.0181H57.9953Z" fill="black"/>
<path d="M74.267 13.5318H78.2752C81.9293 13.5318 84.9212 16.5123 84.9212 20.1779V25.2937C84.9212 28.9479 81.9407 31.9397 78.2752 31.9397H74.267C70.6128 31.9397 67.621 28.9593 67.621 25.2937V20.1779C67.621 16.5237 70.6014 13.5318 74.267 13.5318ZM74.267 28.1828H78.2752C79.8739 28.1828 81.1642 26.8695 81.1642 25.248V20.2007C81.1642 18.5792 79.8624 17.2659 78.2752 17.2659H74.267C72.6683 17.2659 71.3779 18.5792 71.3779 20.2007V25.248C71.3779 26.8695 72.6797 28.1828 74.267 28.1828Z" fill="black"/>
<path d="M91.6603 6.68027V28.1828H98.1807C99.7794 28.1828 101.07 26.881 101.07 25.2937V20.2121C101.07 18.5906 99.768 17.2774 98.1807 17.2774H93.7957V13.5318H98.1807C101.835 13.5318 104.827 16.5123 104.827 20.1779V25.328C104.827 28.9707 101.846 31.9397 98.1807 31.9397H91.6603C89.6048 31.9397 87.9147 30.2497 87.9147 28.1942V6.68027H91.6603Z" fill="black"/>
<path d="M114.636 13.5318H118.644C122.298 13.5318 125.29 16.5123 125.29 20.1779V25.2937C125.29 28.9479 122.31 31.9397 118.644 31.9397H114.636C110.982 31.9397 107.99 28.9593 107.99 25.2937V20.1779C107.99 16.5237 110.97 13.5318 114.636 13.5318ZM114.636 28.1828H118.644C120.243 28.1828 121.533 26.8695 121.533 25.248V20.2007C121.533 18.5792 120.231 17.2659 118.644 17.2659H114.636C113.037 17.2659 111.747 18.5792 111.747 20.2007V25.248C111.747 26.8695 113.049 28.1828 114.636 28.1828Z" fill="black"/>
<path d="M129.981 13.5318V6.68027H133.727V13.5318H139.391V17.2774H133.727V26.7097C133.727 27.5319 134.435 28.1828 135.326 28.1828H139.391V31.9283H135.269C132.357 31.9283 129.981 29.5988 129.981 26.7211V17.2774H127.583V13.5318H129.981Z" fill="black"/>
<path d="M143.743 6.21204C145.022 6.21204 146.049 7.23977 146.049 8.51873C146.049 9.79769 145.022 10.8254 143.743 10.8254C142.464 10.8254 141.436 9.79769 141.436 8.51873C141.436 7.23977 142.464 6.21204 143.743 6.21204ZM145.627 13.5318V31.9283H141.858V13.5318H145.627Z" fill="black"/>
<path d="M155.618 13.5318H165.975V17.2773H155.618C153.928 17.2773 152.546 18.5905 152.546 20.2235V25.2137C152.546 26.8467 153.916 28.1827 155.618 28.1827H165.975V31.9283H155.618C151.849 31.9283 148.8 28.925 148.8 25.248V20.1664C148.8 16.5122 151.849 13.5204 155.618 13.5204V13.5318Z" fill="black"/>
<path d="M175.613 13.5318H179.621C183.275 13.5318 186.267 16.5123 186.267 20.1779V25.2937C186.267 28.9479 183.287 31.9397 179.621 31.9397H175.613C171.959 31.9397 168.967 28.9593 168.967 25.2937V20.1779C168.967 16.5237 171.948 13.5318 175.613 13.5318ZM175.613 28.1828H179.621C181.22 28.1828 182.51 26.8695 182.51 25.248V20.2007C182.51 18.5792 181.209 17.2659 179.621 17.2659H175.613C174.014 17.2659 172.724 18.5792 172.724 20.2007V25.248C172.724 26.8695 174.026 28.1828 175.613 28.1828Z" fill="black"/>
<path d="M18.7 0H11.9055V6.68028L17.8549 12.6297L11.9055 18.5792V25.2594L30.3705 33.6755L34.47 22.7472C38.5923 11.739 30.4504 0 18.7 0Z" fill="black"/>
<path d="M5.95102 6.67807L0 12.6291L5.95102 18.5801L11.902 12.6291L5.95102 6.67807Z" fill="black"/>
</svg>
