<svg width="173" height="16" viewBox="0 0 173 16" fill="none" xmlns="http://www.w3.org/2000/svg">
<g clip-path="url(#clip0_7729_7836)">
<path d="M87.9277 13.2537H98.3029V15.937H87.9277V13.2537Z" fill="white"/>
<path d="M146.956 0.111328H150.16V14.0792C150.16 15.3352 149.511 15.9415 148.212 15.9415H146.414C145.7 15.9415 145.115 15.7034 144.703 15.1837L132.879 2.94821V15.9415H129.652V1.9737C129.652 0.717684 130.302 0.111328 131.602 0.111328H133.4C134.114 0.111328 134.699 0.349538 135.111 0.869272L146.956 13.148V0.111328Z" fill="white"/>
<path d="M126.398 0.111328V15.9415H122.781V0.111328H126.398Z" fill="white"/>
<path d="M115.671 15.9415H104.302C101.746 15.9415 100.469 14.8154 100.469 12.52V0.111328H104.085V11.6971C104.085 12.7365 104.648 13.2346 105.731 13.2346H114.242C115.346 13.2346 115.887 12.7365 115.887 11.6971V0.111328H119.504V12.52C119.504 14.8154 118.248 15.9415 115.671 15.9415Z" fill="white"/>
<path d="M28.4106 0.0996094C29.1252 0.0996094 29.6449 0.337821 29.9265 0.857554L37.7659 12.8981L45.6051 0.857554C45.9083 0.337821 46.4281 0.0996094 47.1211 0.0996094H48.6803C49.9796 0.0996094 50.6509 0.705966 50.6509 1.96199V15.9298H47.4242V4.06258L40.0829 15.1719C39.7798 15.67 39.3033 15.9298 38.7186 15.9298H36.8347C36.2283 15.9298 35.7735 15.67 35.4487 15.1719L28.1291 4.08424V15.9298H24.9023V1.96199C24.9023 0.705966 25.5521 0.0996094 26.8514 0.0996094H28.4106Z" fill="white"/>
<path d="M22.3563 0.251198L13.4993 7.83066L22.7894 15.7782V15.9298H18.4801L11.312 9.73634L4.25231 15.9298H0.0078125V15.7782L9.0815 7.98224L0.0294681 0.251198V0.0996094H4.33893L11.2687 6.07655L18.0902 0.0996094H22.3563V0.251198Z" fill="white"/>
<path d="M90.5683 2.92287H82.1162C80.8745 2.92287 80.298 3.37564 80.298 4.5451V11.4969C80.298 12.6448 80.908 13.2295 82.1496 13.2295H90.5797C91.8213 13.2295 92.4311 12.6664 92.4311 11.4969V4.5451C92.4311 3.37564 91.81 2.92287 90.5683 2.92287ZM91.7777 15.9365H80.9515C78.0761 15.9365 76.6602 14.6589 76.6602 12.0817V3.96037C76.6602 1.38322 78.0761 0.105469 80.9515 0.105469H91.7777C94.6531 0.105469 96.069 1.38322 96.069 3.96037V12.0817C96.069 14.6589 94.6531 15.9365 91.7777 15.9365Z" fill="white"/>
<path fill-rule="evenodd" clip-rule="evenodd" d="M69.357 0.105469H57.6847C55.3766 0.105469 54.1109 1.04189 53.8875 2.89878H57.8435L69.3454 2.89885L73.1753 2.89878C72.9486 1.04189 71.6652 0.105469 69.357 0.105469ZM53.8517 10.4807L53.8516 7.79749H73.2121V10.4807L73.2117 15.9357H69.5953V10.5868H57.4682V15.9357H53.8517V10.4807Z" fill="white"/>
<path fill-rule="evenodd" clip-rule="evenodd" d="M157.458 0.115234H168.96L168.972 0.11525C171.281 0.11525 172.564 1.0517 172.79 2.90865H168.233L158.051 2.90858L153.502 2.90865C153.726 1.0517 154.991 0.11525 157.299 0.11525L157.458 0.115234ZM153.467 10.4905V7.80721H172.827V10.4905V15.9454H169.21V10.5966H157.083V15.9454H153.467V10.4905Z" fill="white"/>
</g>
<defs>
<clipPath id="clip0_7729_7836">
<rect width="173" height="16" fill="white"/>
</clipPath>
</defs>
</svg>
